<svg width="2360" height="1440" viewBox="0 0 2360 1440" fill="none" xmlns="http://www.w3.org/2000/svg">
<g id="happy-01 1">
<g id="birthday">
<g id="Layer 2">
<path id="Vector" opacity="0.1" d="M1295.82 705.84C1249.57 738.22 1189.58 736.13 1137.01 719.28C1084.44 702.43 1036.15 672.43 984.92 651.11C942.23 633.3 897.26 621.58 851.31 616.28C786.03 608.81 713.13 617.91 667.65 670.26C617 728.56 620.89 833.71 675.67 887.23C703.54 914.45 740.02 927.81 771.85 949.07C803.68 970.33 833.13 1005.62 830.42 1046.64C827.91 1084.62 798.74 1113.76 768.56 1132.04C745.23 1146.17 716.49 1161.61 713.68 1190.87C710.96 1219.19 735.12 1241.38 758.19 1254C833.45 1295.17 926.18 1294.78 1001.15 1252.96C1027.9 1238.04 1052.49 1218.2 1080.54 1206.58C1154.19 1176.05 1235.35 1206.78 1313.34 1218.02C1379.61 1227.51 1447.15 1222.6 1511.34 1203.61C1549.96 1192.2 1588.73 1174.76 1615.86 1142.27C1635.43 1118.84 1647.61 1089.19 1659.06 1059.91C1671.26 1028.69 1682.99 997.24 1694.25 965.58C1701.01 946.57 1707.66 927.19 1709.4 906.86C1712.56 870 1699.24 833.58 1681.1 802.47C1638.03 728.63 1565.49 676.7 1486.97 663.51C1408.45 650.32 1325.26 676.08 1264.33 732.45" fill="#6C63FF"/>
<path id="Vector_2" opacity="0.1" d="M1237.48 1343.19C1404.51 1343.19 1539.92 1333.13 1539.92 1320.71C1539.92 1308.29 1404.51 1298.23 1237.48 1298.23C1070.45 1298.23 935.04 1308.29 935.04 1320.71C935.04 1333.13 1070.45 1343.19 1237.48 1343.19Z" fill="#6C63FF"/>
<path id="Vector_3" d="M1287.79 744.57V777.33H1292.92L1291.78 740.86L1287.79 744.57Z" fill="#53425A"/>
<path id="Vector_4" d="M1308.88 836.31L1281.53 838.59V771.92H1300.33C1299.66 773.34 1299.37 775.73 1299.36 778.77C1299.48 784.27 1299.97 789.76 1300.83 795.19C1303.5 813.87 1308.88 836.31 1308.88 836.31Z" fill="#6C63FF"/>
<path id="Vector_5" d="M1294.61 677.59C1294.61 677.59 1296.32 684.43 1278.37 703.23C1260.42 722.03 1267.54 759.93 1286.63 758.79C1286.63 758.79 1304.48 761.73 1310.89 749.58C1313.61 744.24 1313.17 737.83 1309.75 732.91C1303.85 724.22 1292.47 705.97 1294.6 697.24V677.59H1294.61Z" fill="#FFC13D"/>
<path id="Vector_6" opacity="0.5" d="M1292.35 718.34C1292.35 718.34 1293.15 721.54 1284.75 730.34C1276.35 739.14 1279.68 756.87 1288.62 756.34C1288.62 756.34 1296.97 757.72 1299.98 752.03C1301.25 749.53 1301.05 746.53 1299.45 744.23C1296.69 740.16 1291.36 731.62 1292.36 727.54V718.34H1292.35Z" fill="white"/>
<path id="Vector_7" opacity="0.5" d="M1300.84 795.19C1294.25 800.71 1286.61 808.3 1281.53 813.52V792.02C1286.92 786.65 1294.08 781.91 1299.37 778.76C1299.49 784.28 1299.98 789.76 1300.84 795.19Z" fill="white"/>
<path id="Vector_8" d="M1364.71 860.24H1085.79V987.89H1364.71V860.24Z" fill="#C99398"/>
<path id="Vector_9" opacity="0.1" d="M1364.72 860.24V879.45C1359.39 880.48 1352.39 878.89 1346.54 876.93C1339.54 874.56 1331.83 875.53 1325.63 879.56C1309.56 890.06 1297.01 887.84 1288.26 882.62C1279.47 877.25 1268.64 876.42 1259.13 880.37C1255.04 882.05 1250.64 882.86 1246.22 882.74C1241.05 882.67 1235.97 884.07 1231.56 886.78C1218.36 894.77 1205.21 890.15 1196.94 885.32C1191.52 882.2 1185.12 881.28 1179.04 882.74C1176.44 883.37 1173.76 883.59 1171.09 883.39C1164.99 882.82 1158.86 884.14 1153.53 887.18C1131.74 899.91 1124.55 884.45 1120.26 882.18C1115.41 879.62 1114.85 888.45 1113.42 888.45C1111.99 888.45 1107.15 876.77 1106.01 880.76C1105.48 882.63 1100.99 884.88 1096.38 886.74C1093.02 888.09 1089.35 888.47 1085.79 887.83V860.24H1364.72V860.24Z" fill="black"/>
<path id="Vector_10" d="M1096.91 834.79C1096.91 834.79 1051.2 855.19 1075.59 880.68C1080.99 886.23 1089.22 887.95 1096.39 885.02C1101 883.16 1105.49 880.91 1106.02 879.04C1107.16 875.05 1112 886.73 1113.43 886.73C1114.86 886.73 1115.42 877.9 1120.27 880.46C1124.56 882.73 1131.76 898.19 1153.54 885.46C1158.87 882.43 1165 881.11 1171.1 881.68C1173.77 881.88 1176.45 881.66 1179.04 881.03C1185.12 879.57 1191.52 880.49 1196.94 883.61C1205.2 888.44 1218.36 893.06 1231.55 885.08C1235.95 882.37 1241.04 880.96 1246.21 881.03C1250.63 881.16 1255.03 880.35 1259.12 878.66C1268.63 874.71 1279.46 875.55 1288.25 880.91C1297 886.14 1309.55 888.36 1325.62 877.86C1331.82 873.83 1339.52 872.85 1346.52 875.22C1358.2 879.13 1374.44 881.63 1372.97 864.52C1370.69 838.02 1339.35 830.33 1326.24 830.05C1313.13 829.77 1291.48 827.49 1266.98 830.05C1242.48 832.61 1192.62 832.33 1192.62 832.33C1192.62 832.33 1108.91 829 1096.91 834.79Z" fill="#F8F8FA"/>
<path id="Vector_11" d="M1426.69 987.89H1028.81V1144.16H1426.69V987.89Z" fill="#C99398"/>
<path id="Vector_12" opacity="0.1" d="M1364.72 961.23V987.89H1209.61C1209.34 987.86 1209.08 987.83 1208.82 987.81C1207.51 987.71 1206.19 987.74 1204.88 987.89H1085.8V964.12C1098.77 965.7 1111.86 967.71 1124.76 967.66C1141.88 967.58 1158.8 964.03 1175.95 964.98C1235.93 968.31 1297 969.3 1356.73 962.2C1359.38 961.88 1362.05 961.55 1364.72 961.23Z" fill="black"/>
<path id="Vector_13" opacity="0.1" d="M1426.69 987.89V1001.98C1422.37 1001.43 1418.2 999.71 1414.02 998.34C1410.25 997.11 1406.17 996.15 1402.34 997.17C1400.32 997.71 1398.49 998.77 1396.49 999.38C1388.16 1001.98 1379.48 996.57 1370.75 996.53C1362.1 996.5 1354.36 1001.71 1345.92 1003.61C1332.87 1006.54 1319.53 1001.4 1307.02 996.63C1301.96 994.71 1296.1 992.87 1291.37 995.5C1289.29 996.65 1287.73 998.55 1285.7 999.8C1279.78 1003.46 1272.02 1000.6 1266.12 996.91C1262.38 994.58 1257.86 991.83 1253.92 993.8C1251.89 994.81 1250.61 996.85 1248.93 998.36C1243.6 1003.14 1235.2 1001.86 1228.66 998.95C1222.13 996.04 1215.92 991.75 1208.8 991.22C1198.75 990.46 1189.94 997.24 1181.18 1002.2C1172.41 1007.17 1160.25 1010.11 1153.09 1002.99C1150.72 1000.64 1148.97 997.24 1145.73 996.43C1140.37 995.1 1136.34 1001.73 1130.94 1002.89C1124.28 1004.33 1118.86 997.24 1112.19 995.85C1105.28 994.41 1098.86 999.21 1092.76 1002.76C1086.67 1006.31 1077.81 1008.31 1073.39 1002.81C1071.98 1001.06 1071.21 998.7 1069.28 997.54C1067.81 996.82 1066.15 996.55 1064.53 996.78C1058.75 997.1 1053.07 998.46 1047.77 1000.79C1041.68 1003.47 1035.8 1007.5 1029.15 1007.37C1029.03 1007.37 1028.91 1007.36 1028.79 1007.35V987.88H1426.69V987.89Z" fill="black"/>
<path id="Vector_14" d="M1124.75 969.36C1094.23 969.49 1062.71 958.05 1033.93 968.22C1023.49 971.91 1012.9 980.65 1014 991.67C1015 999.39 1021.39 1005.28 1029.16 1005.66C1035.81 1005.79 1041.69 1001.76 1047.78 999.08C1053.08 996.75 1058.76 995.39 1064.55 995.07C1066.18 994.85 1067.83 995.12 1069.3 995.84C1071.23 997 1072 999.36 1073.41 1001.11C1077.83 1006.61 1086.68 1004.6 1092.78 1001.06C1098.88 997.52 1105.31 992.71 1112.21 994.15C1118.88 995.54 1124.3 1002.63 1130.96 1001.2C1136.36 1000.04 1140.39 993.41 1145.75 994.74C1148.99 995.55 1150.74 998.95 1153.11 1001.3C1160.26 1008.41 1172.42 1005.47 1181.19 1000.5C1189.96 995.53 1198.76 988.76 1208.81 989.51C1215.94 990.05 1222.14 994.34 1228.68 997.24C1235.22 1000.14 1243.61 1001.42 1248.94 996.65C1250.63 995.14 1251.9 993.09 1253.93 992.08C1257.87 990.12 1262.39 992.86 1266.12 995.2C1272.03 998.89 1279.78 1001.75 1285.71 998.09C1287.73 996.84 1289.3 994.95 1291.37 993.79C1296.1 991.16 1301.97 992.99 1307.02 994.92C1319.52 999.69 1332.87 1004.83 1345.92 1001.9C1354.36 1000 1362.1 994.79 1370.75 994.83C1379.47 994.86 1388.16 1000.27 1396.49 997.68C1398.48 997.06 1400.32 996 1402.33 995.47C1406.17 994.45 1410.24 995.4 1414.01 996.64C1419.02 998.28 1424 1000.43 1429.27 1000.45C1434.54 1000.47 1440.3 997.59 1441.56 992.48C1442.52 988.57 1440.65 984.51 1438.3 981.23C1429.79 969.32 1415.02 963.19 1400.47 961.56C1385.92 959.93 1371.26 962.2 1356.72 963.93C1296.98 971.03 1235.91 970.04 1175.94 966.7C1158.79 965.73 1141.87 969.29 1124.75 969.36Z" fill="#F8F8FA"/>
<path id="Vector_15" d="M1441.83 1130.05H1001.89V1311.25H1441.83V1130.05Z" fill="#C99398"/>
<path id="Vector_16" opacity="0.1" d="M1443.77 1125.09C1421.77 1129.84 1399.48 1133.15 1377.04 1135C1369.51 1133.69 1361.77 1134.28 1354.53 1136.72C1354.39 1136.76 1354.26 1136.81 1354.12 1136.86C1340.26 1141.77 1328.32 1153.4 1313.62 1153.21C1301.88 1153.06 1291.74 1145.3 1280.46 1142.06C1277.24 1141.13 1273.91 1140.59 1270.56 1140.44C1268.28 1140.32 1266 1140.39 1263.73 1140.63C1250.1 1140.99 1236.46 1141.13 1222.83 1140.85C1202.83 1140.45 1182.87 1139.12 1162.91 1137.81C1141.58 1136.4 1120.24 1134.99 1098.91 1133.58C1078.84 1132.26 1058.77 1130.93 1038.69 1129.61C1033.77 1129.29 1028.84 1128.96 1023.9 1128.63C1018.59 1128.28 1014.65 1129.42 1012.51 1124.68C1009.96 1119 1012.21 1113.35 1015.33 1108.41C1018.01 1108.46 1020.71 1108.65 1023.38 1108.84C1064.03 1111.7 1104.67 1114.67 1145.31 1117.73L1139.06 1118.83C1181.5 1112.15 1224.48 1109.49 1267.42 1110.89C1287.46 1111.55 1307.62 1113.09 1327.52 1110.53C1341.5 1108.74 1355.2 1104.94 1369.26 1103.75C1388.56 1102.12 1407.9 1105.45 1427 1108.78C1431.02 1109.41 1435 1110.26 1438.93 1111.31C1439.96 1116.19 1441.1 1121.07 1443.77 1125.09Z" fill="black"/>
<path id="Vector_17" opacity="0.1" d="M1441.82 1130.05V1147.08C1436.33 1146.27 1430.96 1145.46 1427.62 1149.36C1426.06 1151.2 1425.45 1153.69 1423.93 1155.57C1420.79 1159.44 1414.66 1159.43 1410.19 1157.24C1405.72 1155.04 1402.31 1151.2 1398.45 1148.03C1385.98 1138.01 1369.25 1135.08 1354.12 1140.26C1340.26 1145.17 1328.32 1156.8 1313.62 1156.61C1301.88 1156.46 1291.74 1148.7 1280.47 1145.46C1267.55 1141.83 1253.69 1144.19 1242.69 1151.88C1234.71 1157.55 1227.17 1166.34 1217.45 1165.22C1212.36 1164.63 1208.07 1161.31 1203.75 1158.55C1195.05 1153.02 1185.27 1149.39 1175.06 1147.92C1170.61 1147.29 1165.88 1147.1 1161.78 1148.95C1156.61 1151.28 1153.27 1156.44 1148.46 1159.46C1137.31 1166.48 1122.84 1160.14 1111.35 1153.71C1099.85 1147.27 1085.61 1140.68 1074.22 1147.3C1071.54 1148.86 1069.24 1151.08 1066.4 1152.33C1050.37 1159.36 1034.64 1132.26 1018.19 1138.25C1014.48 1139.6 1011.52 1142.52 1007.87 1144.02C1005.98 1144.79 1003.92 1145.08 1001.89 1144.86V1130.05H1441.82V1130.05Z" fill="black"/>
<path id="Vector_18" d="M1145.33 1119.43C1104.69 1116.37 1064.05 1113.41 1023.4 1110.54C1016.34 1110.04 1009.1 1109.57 1002.32 1111.58C995.54 1113.59 989.2 1118.66 987.75 1125.59C985.56 1136.06 997.98 1146.39 1007.87 1142.32C1011.52 1140.82 1014.48 1137.9 1018.19 1136.55C1034.63 1130.57 1050.37 1157.66 1066.39 1150.63C1069.23 1149.38 1071.53 1147.17 1074.21 1145.61C1085.61 1138.99 1099.84 1145.59 1111.34 1152.02C1122.84 1158.46 1137.3 1164.78 1148.46 1157.77C1153.26 1154.75 1156.6 1149.59 1161.78 1147.26C1165.88 1145.41 1170.6 1145.6 1175.06 1146.24C1185.27 1147.71 1195.05 1151.33 1203.76 1156.87C1208.08 1159.63 1212.37 1162.94 1217.46 1163.53C1227.18 1164.66 1234.72 1155.85 1242.7 1150.19C1253.7 1142.5 1267.56 1140.15 1280.48 1143.77C1291.75 1147.02 1301.9 1154.77 1313.63 1154.93C1328.33 1155.12 1340.27 1143.49 1354.13 1138.58C1369.27 1133.4 1386 1136.34 1398.47 1146.35C1402.32 1149.51 1405.73 1153.36 1410.21 1155.55C1414.69 1157.75 1420.81 1157.76 1423.95 1153.88C1425.47 1152 1426.07 1149.5 1427.64 1147.67C1434.06 1140.17 1448.03 1150.08 1455.81 1144C1457.61 1142.49 1458.86 1140.43 1459.37 1138.14C1461.32 1130.37 1456.44 1122.17 1449.75 1117.76C1443.06 1113.34 1434.91 1111.87 1427.02 1110.49C1407.93 1107.16 1388.59 1103.83 1369.29 1105.46C1355.24 1106.65 1341.54 1110.45 1327.55 1112.24C1307.66 1114.79 1287.5 1113.26 1267.45 1112.6C1224.51 1111.2 1181.53 1113.85 1139.09 1120.54" fill="#F8F8FA"/>
<path id="Vector_19" opacity="0.1" d="M1441.82 1261.92V1304.49C1424.98 1305.35 1408.14 1306.21 1391.3 1307.06C1364.1 1308.44 1336.88 1309.83 1309.66 1309.3C1286.65 1308.85 1263.69 1307.03 1240.69 1306.32C1192.33 1304.82 1143.83 1308.19 1095.61 1304.32C1080.17 1303.08 1064.79 1301.11 1049.33 1300.23C1033.52 1299.35 1017.67 1299.58 1001.89 1300.91V1260.8C1003.34 1260.68 1004.8 1260.65 1006.26 1260.7C1013.89 1260.95 1021.39 1262.76 1028.29 1266.02C1033.68 1268.58 1038.79 1272.05 1044.68 1273.06C1059.98 1275.7 1073.27 1261.25 1088.76 1260.09C1101.23 1259.17 1112.44 1266.9 1123.14 1273.37C1125.2 1274.61 1127.49 1275.86 1129.86 1275.51C1131.84 1275.22 1133.48 1273.86 1135.09 1272.67C1150.36 1261.4 1173.61 1262.77 1187.44 1275.76C1188.94 1277.16 1190.44 1278.74 1192.42 1279.26C1196.34 1280.3 1199.86 1276.9 1202.98 1274.29C1219.84 1260.08 1245.81 1264.35 1265.15 1274.95C1268.73 1276.91 1272.7 1279.14 1276.65 1278.11C1279.3 1277.43 1281.34 1275.39 1283.46 1273.66C1299.93 1260.15 1324.7 1262.66 1343.97 1271.75C1345.83 1272.63 1347.8 1273.58 1349.84 1273.35C1352.29 1273.06 1354.17 1271.17 1356.06 1269.59C1365.48 1261.94 1378.44 1260.34 1389.44 1265.45C1392.48 1266.91 1395.3 1268.89 1398.53 1269.88C1407.74 1272.69 1417.09 1266.97 1426.27 1264.08C1431.3 1262.5 1436.56 1261.77 1441.82 1261.92Z" fill="black"/>
<path id="Vector_20" d="M1488.18 1303.84C1455.89 1305.49 1423.59 1307.13 1391.3 1308.77C1364.1 1310.15 1336.88 1311.54 1309.66 1311.01C1286.65 1310.56 1263.69 1308.74 1240.69 1308.03C1192.33 1306.53 1143.83 1309.9 1095.61 1306.03C1080.17 1304.79 1064.79 1302.82 1049.33 1301.94C1031.93 1300.99 1014.48 1301.36 997.14 1303.04C993.43 1303.39 987.72 1305.25 984.13 1304.52C980.26 1303.73 981.74 1303.29 983 1299.62C983.38 1298.53 983.7 1297.42 983.96 1296.3C985.02 1291.81 985.22 1287.28 985.65 1282.62C986.21 1276.67 987.09 1270.12 992.01 1266.08C995.88 1262.89 1001.24 1262.24 1006.26 1262.4C1013.89 1262.65 1021.39 1264.46 1028.29 1267.73C1033.68 1270.29 1038.79 1273.76 1044.68 1274.77C1059.98 1277.41 1073.27 1262.96 1088.76 1261.8C1101.23 1260.88 1112.44 1268.61 1123.14 1275.08C1125.2 1276.32 1127.49 1277.57 1129.86 1277.22C1131.84 1276.93 1133.48 1275.57 1135.09 1274.38C1150.36 1263.11 1173.61 1264.48 1187.44 1277.47C1188.94 1278.87 1190.44 1280.45 1192.42 1280.97C1196.34 1282.01 1199.86 1278.61 1202.98 1276C1219.84 1261.79 1245.81 1266.06 1265.15 1276.66C1268.73 1278.62 1272.7 1280.85 1276.65 1279.82C1279.3 1279.14 1281.34 1277.1 1283.46 1275.37C1299.93 1261.86 1324.7 1264.37 1343.97 1273.46C1345.83 1274.34 1347.8 1275.29 1349.84 1275.06C1352.29 1274.77 1354.17 1272.88 1356.06 1271.3C1365.48 1263.65 1378.44 1262.05 1389.44 1267.16C1392.48 1268.62 1395.3 1270.6 1398.53 1271.59C1407.74 1274.4 1417.09 1268.68 1426.27 1265.79C1451.24 1257.9 1477.93 1271.48 1486.27 1296.3C1487.13 1298.75 1487.76 1301.28 1488.18 1303.84Z" fill="#F8F8FA"/>
<path id="Vector_21" opacity="0.1" d="M1488.18 1303.84C1455.89 1305.49 1423.59 1307.13 1391.3 1308.77C1364.1 1310.15 1336.88 1311.54 1309.66 1311.01C1286.65 1310.56 1263.69 1308.74 1240.69 1308.03C1192.33 1306.53 1143.83 1309.9 1095.61 1306.03C1080.17 1304.79 1064.79 1302.82 1049.33 1301.94C1031.93 1300.99 1014.48 1301.36 997.14 1303.04C993.43 1303.39 987.72 1305.25 984.13 1304.52C980.26 1303.73 981.74 1303.29 983 1299.62C983.38 1298.53 983.7 1297.42 983.96 1296.3H1486.28C1487.13 1298.75 1487.76 1301.28 1488.18 1303.84Z" fill="black"/>
<path id="Vector_22" d="M971.48 1297.15H1493.84C1503.25 1297.15 1510.87 1304.78 1510.87 1314.18V1316.38H954.45V1314.18C954.45 1304.78 962.07 1297.15 971.48 1297.15Z" fill="#D4D5E0"/>
<path id="Vector_23" d="M1301.91 1135.09L1302.25 1135.19C1302.98 1135.41 1303.4 1136.18 1303.18 1136.92L1301.49 1142.55C1301.27 1143.28 1300.5 1143.7 1299.76 1143.48L1299.42 1143.38C1298.69 1143.16 1298.27 1142.39 1298.49 1141.65L1300.18 1136.02C1300.4 1135.28 1301.17 1134.87 1301.91 1135.09Z" fill="#6C63FF"/>
<path id="Vector_24" d="M1371.75 1118.98L1372.09 1119.08C1372.82 1119.3 1373.24 1120.07 1373.02 1120.81L1371.33 1126.44C1371.11 1127.17 1370.34 1127.59 1369.6 1127.37L1369.26 1127.27C1368.53 1127.05 1368.11 1126.28 1368.33 1125.54L1370.02 1119.91C1370.25 1119.18 1371.02 1118.76 1371.75 1118.98Z" fill="#6C63FF"/>
<path id="Vector_25" d="M1274.18 1124.06L1274.52 1124.16C1275.25 1124.38 1275.67 1125.15 1275.45 1125.89L1273.76 1131.52C1273.54 1132.25 1272.77 1132.67 1272.03 1132.45L1271.69 1132.35C1270.96 1132.13 1270.54 1131.36 1270.76 1130.62L1272.45 1124.99C1272.68 1124.26 1273.45 1123.84 1274.18 1124.06Z" fill="#6C63FF"/>
<path id="Vector_26" d="M1403.24 1118.98L1403.58 1119.08C1404.31 1119.3 1404.73 1120.07 1404.51 1120.81L1402.82 1126.44C1402.6 1127.17 1401.83 1127.59 1401.09 1127.37L1400.75 1127.27C1400.02 1127.05 1399.6 1126.28 1399.82 1125.54L1401.51 1119.91C1401.73 1119.18 1402.5 1118.76 1403.24 1118.98Z" fill="#6C63FF"/>
<path id="Vector_27" d="M1255.21 849.15L1255.42 848.86C1255.87 848.24 1256.74 848.11 1257.36 848.56L1262.1 852.04C1262.72 852.49 1262.85 853.36 1262.4 853.98L1262.19 854.27C1261.74 854.89 1260.87 855.02 1260.25 854.57L1255.51 851.09C1254.88 850.64 1254.75 849.77 1255.21 849.15Z" fill="#6C63FF"/>
<path id="Vector_28" d="M1289.33 979.7L1289.54 979.41C1289.99 978.79 1290.86 978.66 1291.48 979.11L1296.22 982.59C1296.84 983.04 1296.97 983.91 1296.52 984.53L1296.31 984.82C1295.86 985.44 1294.99 985.57 1294.37 985.12L1289.63 981.64C1289.01 981.19 1288.87 980.32 1289.33 979.7Z" fill="#6C63FF"/>
<path id="Vector_29" d="M1334.57 985.7L1334.78 985.41C1335.23 984.79 1336.1 984.66 1336.72 985.11L1341.46 988.59C1342.08 989.04 1342.21 989.91 1341.76 990.53L1341.55 990.82C1341.1 991.44 1340.23 991.57 1339.61 991.12L1334.87 987.64C1334.25 987.19 1334.11 986.32 1334.57 985.7Z" fill="#6C63FF"/>
<path id="Vector_30" d="M1320.88 1120.76L1321.09 1120.47C1321.54 1119.85 1322.41 1119.72 1323.03 1120.17L1327.77 1123.65C1328.39 1124.1 1328.52 1124.97 1328.07 1125.59L1327.86 1125.88C1327.41 1126.5 1326.54 1126.63 1325.92 1126.18L1321.18 1122.7C1320.56 1122.24 1320.43 1121.38 1320.88 1120.76Z" fill="#6C63FF"/>
<path id="Vector_31" d="M1414.12 1136.83L1414.33 1136.54C1414.78 1135.92 1415.65 1135.79 1416.27 1136.24L1421.01 1139.72C1421.63 1140.17 1421.76 1141.04 1421.31 1141.66L1421.1 1141.95C1420.65 1142.57 1419.78 1142.7 1419.16 1142.25L1414.42 1138.77C1413.8 1138.32 1413.66 1137.45 1414.12 1136.83Z" fill="#6C63FF"/>
<path id="Vector_32" d="M1336.09 852.78L1336.3 853.07C1336.74 853.7 1336.6 854.56 1335.97 855L1331.17 858.4C1330.54 858.84 1329.68 858.7 1329.24 858.07L1329.03 857.78C1328.59 857.15 1328.73 856.29 1329.36 855.85L1334.16 852.45C1334.78 852.01 1335.65 852.15 1336.09 852.78Z" fill="#6C63FF"/>
<path id="Vector_33" d="M1255.92 864.57L1256.13 864.86C1256.57 865.49 1256.43 866.35 1255.8 866.79L1251 870.19C1250.37 870.63 1249.51 870.49 1249.07 869.86L1248.86 869.57C1248.42 868.94 1248.56 868.08 1249.19 867.64L1253.99 864.24C1254.61 863.8 1255.47 863.95 1255.92 864.57Z" fill="#6C63FF"/>
<path id="Vector_34" d="M1265.14 976.4L1265.35 976.69C1265.79 977.32 1265.65 978.18 1265.02 978.62L1260.22 982.02C1259.59 982.46 1258.73 982.32 1258.29 981.69L1258.08 981.4C1257.64 980.77 1257.78 979.91 1258.41 979.47L1263.21 976.07C1263.83 975.62 1264.7 975.77 1265.14 976.4Z" fill="#6C63FF"/>
<path id="Vector_35" d="M1322.48 979.47L1322.69 979.76C1323.13 980.39 1322.99 981.25 1322.36 981.69L1317.56 985.09C1316.93 985.53 1316.07 985.39 1315.63 984.76L1315.42 984.47C1314.98 983.84 1315.12 982.98 1315.75 982.54L1320.55 979.14C1321.17 978.7 1322.04 978.84 1322.48 979.47Z" fill="#6C63FF"/>
<path id="Vector_36" d="M1364.33 972.92L1364.54 973.21C1364.98 973.84 1364.84 974.7 1364.21 975.14L1359.41 978.54C1358.78 978.98 1357.92 978.84 1357.48 978.21L1357.27 977.92C1356.83 977.29 1356.97 976.43 1357.6 975.99L1362.4 972.59C1363.02 972.14 1363.88 972.29 1364.33 972.92Z" fill="#6C63FF"/>
<path id="Vector_37" d="M1421.14 976.4L1421.35 976.69C1421.79 977.32 1421.65 978.18 1421.02 978.62L1416.22 982.02C1415.59 982.46 1414.73 982.32 1414.29 981.69L1414.08 981.4C1413.64 980.77 1413.78 979.91 1414.41 979.47L1419.21 976.07C1419.83 975.62 1420.7 975.77 1421.14 976.4Z" fill="#6C63FF"/>
<path id="Vector_38" d="M1291.43 840.66L1291.77 840.76C1292.5 840.98 1292.92 841.75 1292.7 842.49L1291.01 848.12C1290.79 848.85 1290.02 849.27 1289.28 849.05L1288.94 848.95C1288.21 848.73 1287.79 847.96 1288.01 847.22L1289.7 841.59C1289.92 840.85 1290.7 840.44 1291.43 840.66Z" fill="#6C63FF"/>
<path id="Vector_39" d="M1298.64 855.44L1298.98 855.54C1299.71 855.76 1300.13 856.53 1299.91 857.27L1298.22 862.9C1298 863.63 1297.23 864.05 1296.49 863.83L1296.15 863.73C1295.42 863.51 1295 862.74 1295.22 862L1296.91 856.37C1297.13 855.64 1297.9 855.22 1298.64 855.44Z" fill="#6C63FF"/>
<path id="Vector_40" d="M1385.71 977.92L1386.05 978.02C1386.78 978.24 1387.2 979.01 1386.98 979.75L1385.29 985.38C1385.07 986.11 1384.3 986.53 1383.56 986.31L1383.22 986.21C1382.49 985.99 1382.07 985.22 1382.29 984.48L1383.98 978.85C1384.2 978.12 1384.98 977.7 1385.71 977.92Z" fill="#6C63FF"/>
<path id="Vector_41" d="M1403.24 977.92L1403.58 978.02C1404.31 978.24 1404.73 979.01 1404.51 979.75L1402.82 985.38C1402.6 986.11 1401.83 986.53 1401.09 986.31L1400.75 986.21C1400.02 985.99 1399.6 985.22 1399.82 984.48L1401.51 978.85C1401.73 978.12 1402.51 977.7 1403.24 977.92Z" fill="#6C63FF"/>
<path id="Vector_42" opacity="0.1" d="M1539.93 1383.71C1555.73 1383.71 1568.53 1382.41 1568.53 1380.81C1568.53 1379.21 1555.73 1377.91 1539.93 1377.91C1524.13 1377.91 1511.33 1379.21 1511.33 1380.81C1511.33 1382.41 1524.13 1383.71 1539.93 1383.71Z" fill="#6C63FF"/>
<path id="Vector_43" opacity="0.1" d="M1388.21 1364.86C1404.01 1364.86 1416.81 1363.56 1416.81 1361.96C1416.81 1360.36 1404.01 1359.06 1388.21 1359.06C1372.41 1359.06 1359.61 1360.36 1359.61 1361.96C1359.61 1363.56 1372.41 1364.86 1388.21 1364.86Z" fill="#6C63FF"/>
<path id="Vector_44" d="M1394.62 1315.76C1394.62 1315.76 1357.32 1335.03 1376.59 1357.73C1376.59 1357.73 1378.4 1362.69 1383.65 1362.31C1383.65 1362.31 1382.6 1360.4 1386.61 1358.88C1388.03 1358.33 1389.38 1357.61 1390.63 1356.74C1392.32 1355.57 1393.59 1353.88 1394.24 1351.92C1394.24 1351.92 1401.87 1341.71 1395.96 1322.83C1395.96 1322.83 1396.72 1317.49 1396.06 1316.63L1391.53 1322.84C1391.53 1322.84 1396.22 1325.99 1396.75 1330.6C1396.75 1330.6 1391.87 1322.85 1390.81 1323.73C1390.6 1323.91 1388.56 1327.13 1388.56 1327.13C1388.56 1327.13 1396.68 1332.64 1397.29 1339.79C1397.29 1339.79 1392.71 1329.77 1387.78 1328.34L1384.99 1333.38C1384.99 1333.38 1393.86 1338.78 1394.86 1346.9C1394.86 1346.9 1389.71 1336.6 1384.45 1334.52L1382.38 1339.85C1382.38 1339.85 1390.93 1345.29 1391.72 1352.05C1391.72 1352.05 1384.57 1340.75 1381.99 1341.1C1381.99 1341.1 1380.38 1346.11 1380.59 1347.65C1380.59 1347.65 1386.63 1351.69 1386.74 1355.66C1386.74 1355.66 1381.16 1348.61 1380.3 1349.08C1380.3 1349.08 1379.94 1356.16 1381.66 1359.85C1381.66 1359.85 1378.73 1354.59 1379.19 1349.08C1377.46 1350.61 1376.22 1352.61 1375.61 1354.84C1375.61 1354.84 1374 1350.94 1379.29 1347.36C1379.29 1347.36 1379.79 1341.85 1380.4 1341.17C1380.4 1341.17 1374.68 1343.96 1372.24 1347.39C1372.24 1347.39 1373.13 1342.28 1380.9 1339.74L1382.87 1334.34C1382.87 1334.34 1375.11 1337.63 1372.71 1340.53C1372.71 1340.53 1374.43 1335.45 1383.48 1333.02L1386.16 1328.05C1386.16 1328.05 1379.26 1330.37 1375.89 1333.02C1375.89 1333.02 1378.5 1328.66 1386.98 1326.65L1389.16 1323.54C1389.16 1323.54 1384.15 1325.33 1382.76 1325.97C1381.36 1326.61 1381.08 1326.29 1381.08 1326.29C1383.64 1324.13 1386.75 1322.71 1390.06 1322.21C1390.06 1322.23 1394.97 1316.1 1394.62 1315.76Z" fill="#6C63FF"/>
<path id="Vector_45" d="M1553.05 1332.6C1553.05 1332.6 1515.75 1351.87 1535.02 1374.57C1535.02 1374.57 1536.83 1379.53 1542.08 1379.15C1542.08 1379.15 1541.03 1377.24 1545.04 1375.72C1546.46 1375.17 1547.81 1374.45 1549.06 1373.58C1550.75 1372.41 1552.02 1370.71 1552.67 1368.76C1552.67 1368.76 1560.3 1358.55 1554.39 1339.67C1554.39 1339.67 1555.15 1334.33 1554.49 1333.47L1549.96 1339.68C1549.96 1339.68 1554.65 1342.83 1555.18 1347.44C1555.18 1347.44 1550.3 1339.69 1549.24 1340.57C1549.03 1340.75 1546.99 1343.97 1546.99 1343.97C1546.99 1343.97 1555.11 1349.48 1555.72 1356.63C1555.72 1356.63 1551.14 1346.61 1546.21 1345.18L1543.42 1350.22C1543.42 1350.22 1552.29 1355.62 1553.29 1363.74C1553.29 1363.74 1548.14 1353.44 1542.88 1351.36L1540.81 1356.69C1540.81 1356.69 1549.36 1362.13 1550.15 1368.89C1550.15 1368.89 1543 1357.59 1540.42 1357.94C1540.42 1357.94 1538.81 1362.95 1539.02 1364.49C1539.02 1364.49 1545.07 1368.53 1545.17 1372.5C1545.17 1372.5 1539.59 1365.45 1538.73 1365.92C1538.73 1365.92 1538.37 1373 1540.09 1376.69C1540.09 1376.69 1537.16 1371.43 1537.62 1365.92C1535.89 1367.45 1534.65 1369.45 1534.04 1371.68C1534.04 1371.68 1532.43 1367.78 1537.72 1364.2C1537.72 1364.2 1538.22 1358.69 1538.83 1358.01C1538.83 1358.01 1533.11 1360.8 1530.67 1364.23C1530.67 1364.23 1531.56 1359.12 1539.33 1356.58L1541.3 1351.18C1541.3 1351.18 1533.54 1354.47 1531.14 1357.37C1531.14 1357.37 1532.86 1352.29 1541.91 1349.86L1544.59 1344.89C1544.59 1344.89 1537.69 1347.21 1534.32 1349.86C1534.32 1349.86 1536.93 1345.5 1545.41 1343.49L1547.59 1340.38C1547.59 1340.38 1542.58 1342.17 1541.19 1342.81C1539.8 1343.45 1539.51 1343.13 1539.51 1343.13C1542.07 1340.97 1545.18 1339.55 1548.49 1339.05C1548.49 1339.06 1553.4 1332.93 1553.05 1332.6Z" fill="#6C63FF"/>
<g id="group_baloon">
<path id="Vector_46" d="M1540.14 1152.05L1537.35 1150.44C1539.96 1145.93 1532.96 1126.75 1527.19 1117.1C1523.18 1110.4 1520.67 1104.31 1519.51 1098.48C1517.66 1089.2 1519.42 1081.15 1524.74 1074.55C1535.79 1060.88 1535.69 1034.77 1535.69 1034.51L1538.91 1034.48C1538.92 1035.6 1539.02 1061.99 1527.25 1076.57C1519.42 1086.26 1520.33 1099.34 1529.96 1115.44C1534.49 1123.03 1544.18 1145.06 1540.14 1152.05Z" fill="#D4D5E0"/>
<path id="Vector_47" d="M1575.41 1006.73C1576.14 980.58 1558.94 958.88 1536.99 958.27C1515.04 957.66 1496.66 978.36 1495.93 1004.51C1495.22 1029.9 1511.41 1051.09 1532.44 1052.87C1532.06 1055.52 1530.93 1058 1529.18 1060.02C1525.99 1063.28 1539.21 1060.3 1539.21 1060.3C1538.34 1057.92 1537.86 1055.42 1537.79 1052.9C1558.19 1051.38 1574.72 1031.5 1575.41 1006.73Z" fill="#6C63FF"/>
<path id="Vector_48" opacity="0.2" d="M1507.51 1024.19C1504.26 1014.24 1507.26 1004.24 1514.2 1001.24C1513.88 1001.31 1513.56 1001.4 1513.24 1001.5C1505.64 1003.98 1502.23 1014.41 1505.62 1024.8C1508.91 1034.88 1517.41 1041.22 1524.85 1039.3C1525.01 1040.1 1510.8 1034.26 1507.51 1024.19Z" fill="white"/>
<path id="Vector_49" d="M1556.64 1188.29L1559.86 1188.43C1560.08 1183.23 1576.27 1170.8 1586.33 1165.75C1593.31 1162.25 1598.7 1158.45 1602.81 1154.16C1609.36 1147.32 1612.19 1139.58 1611.24 1131.16C1609.26 1113.69 1623.35 1091.72 1623.49 1091.5L1620.79 1089.75C1620.18 1090.69 1605.93 1112.9 1608.04 1131.53C1609.44 1143.91 1601.66 1154.45 1584.89 1162.88C1576.98 1166.83 1556.98 1180.22 1556.64 1188.29Z" fill="#D4D5E0"/>
<path id="Vector_50" d="M1604.86 1046.74C1618.28 1024.28 1644.44 1015.2 1663.28 1026.46C1682.13 1037.72 1686.53 1065.06 1673.11 1087.52C1660.08 1109.33 1635.04 1118.52 1616.35 1108.72C1615.25 1111.16 1614.87 1113.86 1615.26 1116.5C1616.2 1120.96 1606.65 1111.35 1606.65 1111.35C1608.66 1109.81 1610.41 1107.96 1611.83 1105.87C1595.43 1093.66 1592.15 1068.01 1604.86 1046.74Z" fill="#6C63FF"/>
<path id="Vector_51" opacity="0.2" d="M1652.79 1097.91C1660.87 1091.26 1663.71 1081.22 1659.46 1074.96C1659.69 1075.19 1659.91 1075.44 1660.13 1075.7C1665.21 1081.87 1662.49 1092.5 1654.05 1099.45C1645.86 1106.19 1635.29 1106.98 1630.04 1101.37C1629.48 1101.94 1644.61 1104.64 1652.79 1097.91Z" fill="white"/>
<path id="Vector_52" d="M1497.63 1312.32L1495.59 1309.83C1499.61 1306.53 1499.8 1286.11 1497.79 1275.04C1496.39 1267.36 1496.18 1260.77 1497.14 1254.9C1498.67 1245.56 1503.14 1238.64 1510.44 1234.34C1525.59 1225.42 1534.67 1200.95 1534.76 1200.7L1537.78 1201.8C1537.4 1202.85 1528.22 1227.6 1512.07 1237.11C1501.34 1243.43 1497.59 1256 1500.95 1274.46C1502.54 1283.17 1503.87 1307.2 1497.63 1312.32Z" fill="#D4D5E0"/>
<path id="Vector_53" d="M1581.71 1188.66C1591.58 1164.43 1583.1 1138.07 1562.77 1129.79C1542.44 1121.5 1517.95 1134.43 1508.08 1158.66C1498.49 1182.18 1506.21 1207.71 1525.28 1216.76C1524 1219.11 1522.07 1221.03 1519.72 1222.31C1515.59 1224.24 1529.01 1226.1 1529.01 1226.1C1529.03 1223.57 1529.46 1221.06 1530.28 1218.67C1549.9 1224.42 1572.36 1211.61 1581.71 1188.66Z" fill="#6C63FF"/>
<path id="Vector_54" opacity="0.2" d="M1512 1181.15C1512.45 1170.69 1518.77 1162.39 1526.32 1162.02C1525.99 1161.98 1525.66 1161.94 1525.33 1161.93C1517.34 1161.58 1510.49 1170.15 1510.01 1181.07C1509.55 1191.67 1515.28 1200.58 1522.92 1201.41C1522.8 1202.2 1511.54 1191.73 1512 1181.15Z" fill="white"/>
<path id="Vector_55" d="M1281.63 1123.32L1279.59 1120.83C1283.61 1117.53 1283.8 1097.11 1281.79 1086.04C1280.39 1078.36 1280.18 1071.77 1281.14 1065.9C1282.67 1056.56 1287.14 1049.64 1294.44 1045.34C1309.59 1036.42 1318.67 1011.95 1318.76 1011.7L1321.78 1012.8C1321.4 1013.85 1312.22 1038.6 1296.07 1048.11C1285.34 1054.43 1281.59 1067 1284.95 1085.46C1286.54 1094.17 1287.87 1118.2 1281.63 1123.32Z" fill="#D4D5E0"/>
<path id="Vector_56" d="M1365.71 999.66C1375.58 975.43 1367.1 949.07 1346.77 940.79C1326.44 932.51 1301.95 945.43 1292.08 969.66C1282.49 993.18 1290.21 1018.71 1309.28 1027.76C1308 1030.11 1306.07 1032.03 1303.72 1033.31C1299.59 1035.24 1313.01 1037.1 1313.01 1037.1C1313.03 1034.57 1313.46 1032.06 1314.28 1029.67C1333.9 1035.42 1356.36 1022.61 1365.71 999.66Z" fill="#6C63FF"/>
<path id="Vector_57" opacity="0.2" d="M1296 992.15C1296.45 981.69 1302.77 973.39 1310.32 973.02C1309.99 972.98 1309.66 972.94 1309.33 972.93C1301.34 972.58 1294.49 981.15 1294.01 992.07C1293.55 1002.67 1299.28 1011.58 1306.92 1012.41C1306.8 1013.2 1295.54 1002.73 1296 992.15Z" fill="white"/>
<path id="Vector_58" d="M1404.63 1287.32L1402.59 1284.83C1406.61 1281.53 1406.8 1261.11 1404.79 1250.04C1403.39 1242.36 1403.18 1235.77 1404.14 1229.9C1405.67 1220.56 1410.14 1213.64 1417.44 1209.34C1432.59 1200.42 1441.67 1175.95 1441.76 1175.7L1444.78 1176.8C1444.4 1177.85 1435.22 1202.6 1419.07 1212.11C1408.34 1218.43 1404.59 1231 1407.95 1249.46C1409.54 1258.17 1410.87 1282.2 1404.63 1287.32Z" fill="#D4D5E0"/>
<path id="Vector_59" d="M1488.71 1163.66C1498.58 1139.43 1490.1 1113.07 1469.77 1104.79C1449.44 1096.5 1424.95 1109.43 1415.08 1133.66C1405.49 1157.18 1413.21 1182.71 1432.28 1191.76C1431 1194.11 1429.07 1196.03 1426.72 1197.31C1422.59 1199.24 1436.01 1201.1 1436.01 1201.1C1436.03 1198.57 1436.46 1196.06 1437.28 1193.67C1456.9 1199.42 1479.36 1186.61 1488.71 1163.66Z" fill="#6C63FF"/>
<path id="Vector_60" opacity="0.2" d="M1419 1156.15C1419.45 1145.69 1425.77 1137.39 1433.32 1137.02C1432.99 1136.98 1432.66 1136.94 1432.33 1136.93C1424.34 1136.58 1417.49 1145.15 1417.01 1156.07C1416.55 1166.67 1422.28 1175.58 1429.92 1176.41C1429.8 1177.2 1418.54 1166.73 1419 1156.15Z" fill="white"/>
<path id="Vector_61" d="M1216.63 970.32L1214.59 967.83C1218.61 964.53 1218.8 944.11 1216.79 933.04C1215.39 925.36 1215.18 918.77 1216.14 912.9C1217.67 903.56 1222.14 896.64 1229.44 892.34C1244.59 883.42 1253.67 858.95 1253.76 858.7L1256.78 859.8C1256.4 860.85 1247.22 885.6 1231.07 895.11C1220.34 901.43 1216.59 914 1219.95 932.46C1221.54 941.17 1222.87 965.2 1216.63 970.32Z" fill="#D4D5E0"/>
<path id="Vector_62" d="M1300.71 846.66C1310.58 822.43 1302.1 796.07 1281.77 787.79C1261.44 779.51 1236.95 792.43 1227.08 816.66C1217.49 840.18 1225.21 865.71 1244.28 874.76C1243 877.11 1241.07 879.03 1238.72 880.31C1234.59 882.24 1248.01 884.1 1248.01 884.1C1248.03 881.57 1248.46 879.06 1249.28 876.67C1268.9 882.42 1291.36 869.61 1300.71 846.66Z" fill="#6C63FF"/>
</g>
</g>
<g id="Layer 1">
<path id="Vector_63" d="M2082.2 389.87C1981.71 389.87 1879.98 374.81 1778.93 344.91C1680.79 315.87 1583.06 272.85 1488.48 217.05C1339.53 129.16 1245 36.54 1230.88 22.33C1177.53 106.91 1096.5 173.64 990 220.7C904.17 258.62 801.7 283.92 685.43 295.89C487.57 316.26 315.94 290.56 314.23 290.3C313.11 290.13 312.35 289.08 312.52 287.97C312.69 286.85 313.74 286.09 314.85 286.26C316.56 286.52 487.74 312.14 685.1 291.82C866.99 273.09 1108.97 210.37 1228.79 17.9799C1229.39 17.0199 1230.65 16.73 1231.61 17.33C1231.75 17.42 1231.89 17.5299 1232 17.6499C1232.96 18.6499 1330.08 118.87 1490.67 213.61C1638.81 300.99 1872.83 401.45 2146.37 383.73C2147.5 383.66 2148.47 384.51 2148.55 385.64C2148.63 386.77 2147.77 387.74 2146.64 387.82C2125.23 389.18 2103.75 389.87 2082.2 389.87Z" fill="#CCCCCC"/>
<path id="Vector_64" d="M542.81 395.71C540.67 395.59 538.84 394.13 538.26 392.06L511.95 303.69C511.14 300.98 512.69 298.13 515.39 297.32C515.8 297.2 516.22 297.13 516.64 297.11L570.23 294.9C573.05 294.78 575.44 296.98 575.55 299.8C575.57 300.37 575.5 300.94 575.34 301.48L548.05 392.05C547.43 394.23 545.41 395.73 543.14 395.69C543.04 395.72 542.93 395.72 542.81 395.71Z" fill="#3FC844"/>
<path id="Vector_65" d="M800.79 376.31C798.66 376.54 796.62 375.39 795.71 373.44L755.52 290.46C754.29 287.92 755.35 284.86 757.89 283.62C758.27 283.44 758.67 283.3 759.09 283.21L811.63 272.4C814.4 271.83 817.1 273.61 817.67 276.38C817.78 276.94 817.81 277.51 817.73 278.08L805.38 371.86C805.12 374.12 803.37 375.91 801.12 376.24C801.02 376.28 800.9 376.29 800.79 376.31Z" fill="#EDA822"/>
<path id="Vector_66" d="M1085.06 279.13C1083.08 279.96 1080.8 279.45 1079.37 277.85L1017 209.94C1015.09 207.86 1015.23 204.62 1017.31 202.71C1017.62 202.42 1017.97 202.18 1018.34 201.98L1065.55 176.52C1068.04 175.18 1071.14 176.11 1072.48 178.6C1072.75 179.1 1072.94 179.64 1073.03 180.21L1088.19 273.58C1088.59 275.82 1087.43 278.04 1085.37 279C1085.27 279.04 1085.16 279.09 1085.06 279.13Z" fill="#EDA822"/>
<path id="Vector_67" d="M1992.38 479.53C1990.27 479.17 1988.61 477.51 1988.27 475.4L1972.02 384.64C1971.52 381.86 1973.37 379.2 1976.15 378.7C1976.57 378.63 1976.99 378.6 1977.42 378.63L2030.92 382.44C2033.74 382.64 2035.86 385.09 2035.66 387.91C2035.62 388.48 2035.48 389.04 2035.26 389.56L1998.01 476.51C1997.15 478.61 1994.98 479.87 1992.73 479.58C1992.61 479.56 1992.5 479.55 1992.38 479.53Z" fill="#3FC844"/>
<path id="Vector_68" d="M1706.81 420.08C1704.83 419.26 1703.59 417.28 1703.72 415.14L1708.01 323.04C1708.14 320.22 1710.54 318.03 1713.36 318.17C1713.78 318.19 1714.2 318.26 1714.61 318.39L1765.94 333.97C1768.64 334.79 1770.17 337.65 1769.35 340.36C1769.18 340.91 1768.93 341.42 1768.59 341.88L1712.98 418.4C1711.67 420.26 1709.28 421 1707.15 420.22C1707.03 420.17 1706.92 420.13 1706.81 420.08Z" fill="#EDA822"/>
<path id="Vector_69" d="M1547.27 442.47H1498.14C1494.18 442.47 1490.98 439.26 1490.98 435.31C1490.98 431.36 1494.19 428.15 1498.14 428.15H1547.27C1551.23 428.15 1554.43 431.36 1554.43 435.31C1554.43 439.26 1551.23 442.47 1547.27 442.47Z" fill="#3F3D56"/>
<path id="Vector_70" d="M1426.51 301.24C1419.23 301.23 1413.31 295.38 1413.21 288.11C1402.26 256.16 1402.26 221.47 1413.21 189.52C1413.3 182.17 1419.33 176.29 1426.68 176.38C1433.97 176.47 1439.83 182.4 1439.82 189.69L1439.76 190.04C1428.13 221.74 1428.13 254.57 1439.76 287.6L1439.82 287.94C1439.8 295.28 1433.85 301.23 1426.51 301.24Z" fill="white"/>
<path id="Vector_71" d="M357.5 764.35C355.72 760.82 357.13 756.51 360.66 754.72L404.5 732.56C408.04 730.78 412.34 732.21 414.12 735.74C415.89 739.26 414.48 743.56 410.97 745.34L367.13 767.5C363.6 769.3 359.29 767.88 357.5 764.35Z" fill="#3F3D56"/>
<path id="Vector_72" d="M393.31 581.11L393.21 580.78C388.69 546.05 373.88 516.76 349.2 493.71L348.99 493.42C345.67 486.86 348.29 478.86 354.85 475.54C361.35 472.25 369.29 474.8 372.66 481.26C396.85 504.83 412.5 535.79 417.14 569.25C420.38 575.85 417.65 583.82 411.05 587.05C404.5 590.28 396.59 587.62 393.31 581.11Z" fill="white"/>
<g id="girl_baloon">
<path id="Vector_73" d="M1534.98 471.13H1504.31C1499.22 471.13 1495.1 467.01 1495.1 461.92C1495.1 461.24 1495.18 460.55 1495.33 459.89L1501.01 434.82C1428.12 422.97 1373.3 343.35 1373.3 249.05C1373.3 145.78 1438.95 61.76 1519.65 61.76C1600.35 61.76 1666 145.78 1666 249.05C1666 343.36 1611.17 422.97 1538.29 434.82L1543.97 459.89C1545.09 464.85 1541.98 469.78 1537.02 470.91C1536.34 471.05 1535.66 471.13 1534.98 471.13Z" fill="#FF6584"/>
<path id="Vector_74" d="M1496.07 433.54C1480.84 429.73 1464.7 433.2 1452.37 442.93C1440.23 452.9 1433.51 468.01 1434.22 483.69C1435.72 517.13 1469.39 535.11 1492.86 553.1C1520.59 574.36 1546.63 598.88 1565.42 628.57C1584.03 657.97 1595.7 692.82 1593 727.91C1590.66 758.26 1576.91 788.35 1553.32 808C1550.35 810.46 1547.23 812.73 1543.97 814.81C1540.66 816.94 1543.73 822.26 1547.07 820.11C1572.92 803.5 1590.01 775.8 1596.49 746.05C1603.69 712.95 1597.28 678.49 1583.12 648.1C1568.41 616.53 1545.27 589.69 1519.27 566.84C1506.37 555.51 1492.68 545.22 1478.8 535.12C1466.6 526.24 1453.81 516.69 1446.23 503.32C1438.62 490 1438.44 473.69 1445.77 460.21C1453.42 446.63 1467.77 438.2 1483.35 438.11C1487.09 438.07 1490.82 438.53 1494.44 439.46C1498.27 440.44 1499.9 434.52 1496.07 433.54Z" fill="#3F3D56"/>
<path id="Vector_75" d="M1722.77 959.27L1498.97 843.88C1491.94 840.25 1489.18 831.61 1492.8 824.58L1506.64 797.73C1510.27 790.7 1518.91 787.94 1525.94 791.56L1749.74 906.95C1756.77 910.58 1759.53 919.22 1755.91 926.25L1742.07 953.1C1740.34 956.48 1737.32 959.03 1733.69 960.18C1732.27 960.64 1730.79 960.87 1729.3 960.87C1727.03 960.86 1724.79 960.32 1722.77 959.27Z" fill="#6C63FF"/>
</g>
<path id="Vector_76" d="M1654.54 851.33C1658.11 849.94 1662.09 850.04 1665.58 851.62L1738.92 892.17C1755.59 901.38 1762.12 922.03 1753.77 939.15L1752.85 938.7L1753.77 939.15C1745.82 955.45 1726.93 963.23 1709.81 957.25L1630.27 929.45C1623.03 926.25 1619.75 917.8 1622.95 910.56C1622.95 910.56 1622.95 910.55 1622.96 910.55L1646.61 858.91C1647.02 857.98 1647.53 857.09 1648.13 856.26C1649.74 854.02 1651.97 852.32 1654.54 851.33Z" fill="#2F2E41"/>
<path id="Vector_77" d="M1823.29 838.94C1883.79 838.94 1932.84 789.893 1932.84 729.39C1932.84 668.887 1883.79 619.84 1823.29 619.84C1762.79 619.84 1713.74 668.887 1713.74 729.39C1713.74 789.893 1762.79 838.94 1823.29 838.94Z" fill="#6C63FF"/>
<path id="Vector_78" d="M1809.85 1410.69V1158.89C1809.86 1150.98 1816.27 1144.57 1824.18 1144.56H1854.39C1862.3 1144.57 1868.71 1150.98 1868.72 1158.89V1410.69C1868.71 1418.6 1862.3 1425.01 1854.39 1425.02H1824.18C1816.27 1425.01 1809.86 1418.6 1809.85 1410.69Z" fill="#6C63FF"/>
<path id="Vector_79" d="M1744.35 1410.69V1158.89C1744.36 1150.98 1750.77 1144.57 1758.68 1144.56H1788.89C1796.8 1144.57 1803.21 1150.98 1803.22 1158.89V1410.69C1803.21 1418.6 1796.8 1425.01 1788.89 1425.02H1758.68C1750.77 1425.01 1744.36 1418.6 1744.35 1410.69Z" fill="#6C63FF"/>
<path id="Vector_80" d="M1825.59 770L1825.7 765.91C1818.08 765.7 1811.37 765.22 1806.32 761.53C1803.43 759.3 1801.65 755.91 1801.45 752.26C1801.27 750.03 1802.14 747.83 1803.81 746.34C1807.16 743.51 1812.55 744.43 1816.48 746.23L1819.87 747.78L1813.37 700.31L1809.31 700.87L1814.83 741.25C1809.49 739.68 1804.55 740.36 1801.16 743.22C1798.52 745.52 1797.11 748.92 1797.35 752.42C1797.59 757.33 1799.99 761.88 1803.9 764.85C1810.4 769.57 1818.82 769.81 1825.59 770Z" fill="#2F2E41"/>
<path id="Vector_81" d="M1789.26 704.34H1767.21V708.43H1789.26V704.34Z" fill="#2F2E41"/>
<path id="Vector_82" d="M1858.86 704.34H1836.81V708.43H1858.86V704.34Z" fill="#2F2E41"/>
<path id="Vector_83" d="M1928.12 1200.56L1890.23 951.63C1889.05 943.81 1894.42 936.51 1902.24 935.31L1932.11 930.76C1939.93 929.58 1947.23 934.95 1948.43 942.77L1986.32 1191.7C1987.5 1199.52 1982.13 1206.82 1974.31 1208.02L1944.44 1212.57C1936.62 1213.77 1929.32 1208.4 1928.12 1200.59C1928.12 1200.58 1928.12 1200.57 1928.12 1200.56Z" fill="#6C63FF"/>
<path id="Vector_84" d="M1898.84 1040.79C1895.62 1038.72 1893.36 1035.44 1892.59 1031.69L1882.32 948.52C1879.98 929.62 1892.86 912.2 1911.61 908.9L1911.79 909.91L1911.61 908.9C1929.47 905.76 1946.86 916.47 1952.08 933.84L1976.31 1014.54C1977.98 1022.28 1973.06 1029.9 1965.32 1031.56H1965.31L1909.62 1042.76C1908.62 1042.98 1907.6 1043.09 1906.58 1043.09C1903.83 1043.08 1901.14 1042.28 1898.84 1040.79Z" fill="#2F2E41"/>
<path id="Vector_85" d="M1901.78 1220.71H1609.03C1599.42 1220.71 1591.63 1212.92 1591.63 1203.31C1591.63 1200.6 1592.27 1197.92 1593.48 1195.49L1735.02 914.02C1759.15 866.03 1817.62 846.69 1865.61 870.82C1898.45 887.33 1919.18 920.95 1919.18 957.71V1203.3C1919.17 1212.92 1911.38 1220.7 1901.78 1220.71Z" fill="#2F2E41"/>
<path id="Vector_86" d="M1827.17 639.01C1804.74 644.02 1785.83 658.63 1763.28 663.18C1753.01 665.25 1741.69 665.17 1732.25 660.11C1725.26 656.31 1719.92 650.08 1717.24 642.59C1711.85 627.03 1714.76 609.8 1724.95 596.86C1737.61 581.37 1757.79 574.23 1777.15 572.21C1815.9 568.18 1855.7 580.95 1887.24 603.19C1919.8 626.16 1944.79 660.64 1953.17 699.89C1957.65 720.87 1957.21 743.19 1949.56 763.39C1942.2 782.72 1927.72 798.5 1909.1 807.49C1904.65 809.64 1900.02 811.36 1895.25 812.65C1893.63 813.16 1892.73 814.88 1893.24 816.5C1893.72 818.04 1895.32 818.94 1896.89 818.57C1917.84 812.85 1935.91 799.54 1947.59 781.24C1959.59 762.05 1963.61 738.56 1961.76 716.23C1958.19 673.04 1934.44 633.35 1901.24 606.17C1869.34 580.06 1828.08 564.18 1786.6 565.44C1765.79 566.07 1744.2 571.35 1728.02 585.06C1713.86 597.04 1706.67 615.34 1708.9 633.75C1709.83 642.23 1713.2 650.26 1718.59 656.87C1725.19 664.33 1734.33 669.05 1744.23 670.11C1768.76 673.3 1790.03 659.4 1811.71 650.46C1817.24 648.13 1822.97 646.28 1828.82 644.92C1832.66 644.07 1831.03 638.15 1827.17 639.01Z" fill="#2F2E41"/>
<path id="Vector_87" d="M1888.79 595.62C1879.98 562.65 1902.97 528.34 1934.2 518.04C1952.12 512.46 1971.35 512.67 1989.14 518.65C2006.49 524.52 2022.06 534.69 2034.41 548.21C2061.79 577.33 2073.91 616.64 2079.59 655.4C2085.45 695.42 2082.14 739.24 2102.62 775.6C2111.11 790.68 2123.71 803.88 2139.99 810.37C2155.18 816.43 2173.37 816.45 2187.93 808.58C2191.43 806.66 2194.67 804.3 2197.56 801.54C2200.44 798.82 2196.09 794.49 2193.22 797.2C2181.04 808.7 2162.87 810.87 2147.21 806.35C2130.13 801.43 2116.98 788.3 2108.32 773.18C2098.3 755.7 2094.13 735.72 2091.85 715.89C2089.37 694.25 2088.41 672.49 2085.09 650.93C2079.11 612.05 2066.18 573.03 2038.76 543.85C2026.22 530.22 2010.58 519.82 1993.17 513.51C1975.24 507.09 1955.82 506.11 1937.34 510.69C1920.54 515.04 1905.73 525 1895.37 538.92C1885.3 552.13 1880.17 568.45 1880.89 585.05C1881.15 589.17 1881.82 593.25 1882.89 597.23C1883.4 598.85 1885.12 599.75 1886.74 599.24C1888.26 598.78 1889.16 597.19 1888.79 595.62Z" fill="#2F2E41"/>
<path id="Vector_88" d="M983.19 973.44L728.63 956.77C711.75 955.69 698.95 941.13 700.03 924.25C701.11 907.37 715.67 894.57 732.55 895.65C732.58 895.65 732.6 895.65 732.63 895.66L987.19 912.33C995.09 912.85 1001.08 919.67 1000.56 927.58L998.43 960.07C997.94 967.6 991.69 973.46 984.14 973.47C983.83 973.47 983.52 973.46 983.19 973.44Z" fill="#6C63FF"/>
<path id="Vector_89" d="M933.42 977.65L724.09 969.83C716.18 969.54 710 962.88 710.3 954.97L712.11 906.44C712.41 898.53 719.06 892.35 726.98 892.65L936.31 900.47C944.22 900.76 950.4 907.42 950.1 915.33L948.29 963.86C947.99 971.56 941.67 977.65 933.97 977.67C933.78 977.66 933.6 977.66 933.42 977.65Z" fill="#2F2E41"/>
<path id="Vector_90" d="M674.32 1410.68V1139.3C674.33 1131.38 680.74 1124.97 688.66 1124.96H721.22C729.14 1124.97 735.55 1131.38 735.56 1139.3V1410.68C735.55 1418.6 729.14 1425.01 721.22 1425.02H688.66C680.74 1425.01 674.33 1418.6 674.32 1410.68Z" fill="#2F2E41"/>
<path id="Vector_91" d="M813.49 1276.74L672.82 1044.66C668.72 1037.89 670.89 1029.07 677.65 1024.96L705.5 1008.08C712.27 1003.98 721.09 1006.15 725.2 1012.91L865.87 1244.99C869.97 1251.76 867.8 1260.58 861.04 1264.69L833.19 1281.57C826.41 1285.66 817.6 1283.5 813.49 1276.74Z" fill="#2F2E41"/>
<path id="Vector_92" d="M738.11 841.74C800.248 841.74 850.62 791.367 850.62 729.23C850.62 667.092 800.248 616.72 738.11 616.72C675.972 616.72 625.6 667.092 625.6 729.23C625.6 791.367 675.972 841.74 738.11 841.74Z" fill="#6C63FF"/>
<path id="Vector_93" d="M799.01 767.64C802.63 766.45 805.95 764.5 808.75 761.92C812.51 758.19 814.43 752.99 813.99 747.71C813.75 743.94 811.77 740.51 808.62 738.42C804.6 735.84 799.22 735.83 793.74 738.25L793.95 694.33L789.54 694.31L789.3 745.95L792.7 743.81C796.64 741.33 802.27 739.59 806.25 742.14C808.24 743.51 809.48 745.72 809.61 748.14C809.91 752.07 808.49 755.94 805.71 758.73C800.84 763.38 793.73 764.84 785.62 766.14L786.32 770.5C790.63 769.93 794.88 768.97 799.01 767.64Z" fill="#2F2E41"/>
<path id="Vector_94" d="M839.427 692.143L815.871 695.253L816.448 699.625L840.004 696.515L839.427 692.143Z" fill="#2F2E41"/>
<path id="Vector_95" d="M765.066 701.96L741.511 705.07L742.088 709.443L765.643 706.332L765.066 701.96Z" fill="#2F2E41"/>
<path id="Vector_96" d="M625.41 1193.36V971.6C625.47 915.6 670.85 870.23 726.85 870.16H794.18C804.48 870.15 812.86 878.47 812.92 888.77L852.64 1193.36C852.63 1203.71 844.24 1212.1 833.89 1212.11H644.16C633.81 1212.1 625.42 1203.71 625.41 1193.36Z" fill="#2F2E41"/>
<g id="boy_baloon">
<path id="Vector_97" d="M383.05 787.7C380.5 786.54 378.62 784.28 377.94 781.56L371.7 756.63C301.31 778.94 216.46 732.62 173.91 648.46C127.32 556.3 148 451.69 220.02 415.29C292.04 378.89 388.54 424.24 435.13 516.4C477.68 600.56 464.67 696.35 404.97 739.81L421.35 759.62C424.59 763.54 424.04 769.35 420.12 772.59C419.59 773.03 419.02 773.4 418.41 773.71L391.04 787.55C388.53 788.81 385.59 788.87 383.05 787.7Z" fill="#CCCCCC"/>
<path id="Vector_98" d="M408.8 736.44C420.68 726.17 436.64 721.98 452.03 725.1C467.36 728.52 480.18 738.97 486.62 753.29C500.37 783.81 478.43 815.04 465.6 841.69C450.44 873.17 438.27 906.8 434.89 941.78C431.55 976.42 436.85 1012.78 455.1 1042.88C470.88 1068.91 496.73 1089.56 526.65 1096.45C530.41 1097.3 534.22 1097.92 538.06 1098.31C541.98 1098.72 541.63 1104.85 537.69 1104.44C507.13 1101.27 479.38 1084.27 460.17 1060.64C438.81 1034.35 428.99 1000.7 427.91 967.19C426.79 932.38 435.34 897.99 448.23 865.87C454.63 849.94 462.21 834.57 470.04 819.31C476.92 805.89 484.02 791.59 484.76 776.24C485.54 760.92 478.34 746.28 465.72 737.55C452.76 728.89 436.16 727.83 422.21 734.78C418.86 736.44 415.74 738.52 412.93 740.99C409.95 743.59 405.82 739.05 408.8 736.44Z" fill="#3F3D56"/>
<path id="Vector_99" d="M484.54 1087.32L677.58 920.55C690.36 909.47 709.7 910.85 720.77 923.63C731.84 936.41 730.47 955.75 717.69 966.82C717.67 966.84 717.64 966.86 717.62 966.88L524.58 1133.66C518.59 1138.84 509.53 1138.18 504.36 1132.19L483.07 1107.55C477.89 1101.55 478.55 1092.5 484.54 1087.32Z" fill="#6C63FF"/>
</g>
<path id="Vector_100" d="M527.15 1032.28L685.66 895.33C691.65 890.15 700.71 890.81 705.88 896.8L742.24 938.88C747.42 944.87 746.76 953.93 740.77 959.1L582.26 1096.05C576.26 1101.22 567.22 1100.56 562.03 1094.57L525.67 1052.48C520.5 1046.52 521.16 1037.46 527.15 1032.28Z" fill="#2F2E41"/>
<path id="Vector_101" d="M736.01 662.5C751.05 650.05 771.16 661.83 788.17 660.15C804.44 658.55 817.54 644.23 821.11 628.82C825.27 610.84 816.25 592.58 802.65 581.06C787.76 568.45 767.77 564.53 748.71 566.45C726.87 568.65 706.75 578.43 688.64 590.37C671.16 601.53 655.04 614.68 640.58 629.55C627.63 643.32 616.56 659.81 612.77 678.6C609.33 695.67 611.35 714.7 621.2 729.41C626.43 736.95 633.51 743.02 641.77 747.02C650.37 751.45 659.58 754.67 667.9 759.66C680.48 767.19 692.56 782.54 688.28 798.2C687.36 801.62 685.61 804.76 683.19 807.35C680.28 810.46 675.23 806.18 678.14 803.07C683.26 797.6 683.2 790.17 680.66 783.48C677.63 775.93 672.12 769.64 665.04 765.63C656.33 760.43 646.66 757.13 637.72 752.38C629.16 748.03 621.78 741.67 616.2 733.85C605.68 718.63 602.82 699.03 605.61 681C608.63 661.49 619.02 643.9 631.9 629.25C645.92 613.3 663.02 599.9 680.46 587.9C699.17 575.02 719.78 564.23 742.43 560.61C762.06 557.48 783.23 560.04 800.13 571.02C815.91 581.28 827.83 598.63 828.69 617.78C829.24 635.52 820.17 652.18 804.97 661.33C797.31 665.72 788.47 667.59 779.69 666.68C770.3 665.9 760.95 662.84 751.47 663.46C747.18 663.64 743.07 665.21 739.76 667.93C736.5 670.65 732.75 665.19 736.01 662.5Z" fill="#2F2E41"/>
<path id="Vector_102" d="M866.2 1258.97L781.79 1389.84C777.49 1396.49 768.62 1398.4 761.97 1394.12L734.61 1376.47C727.96 1372.18 726.04 1363.3 730.33 1356.65L814.74 1225.78C819.04 1219.13 827.91 1217.22 834.56 1221.5L861.92 1239.15C865.12 1241.2 867.37 1244.45 868.16 1248.18C868.21 1248.43 868.26 1248.68 868.3 1248.93C868.88 1252.41 868.13 1256 866.2 1258.97Z" fill="#2F2E41"/>
<path id="Vector_103" d="M2144.46 1426H316.59C315.46 1426 314.54 1425.08 314.54 1423.95C314.54 1422.82 315.46 1421.9 316.59 1421.9H2144.46C2145.59 1421.9 2146.51 1422.82 2146.51 1423.95C2146.51 1425.08 2145.59 1426 2144.46 1426Z" fill="#3F3D56"/>
<g id="gilter">
<path id="Vector_104" d="M976.19 621.57H963.91V660.46H976.19V621.57Z" fill="#F2F2F2"/>
<path id="Vector_105" d="M1174.74 511.04H1162.46V549.93H1174.74V511.04Z" fill="#F2F2F2"/>
<path id="Vector_106" d="M1124.47 630.139L1114.86 637.787L1139.08 668.215L1148.69 660.567L1124.47 630.139Z" fill="#F2F2F2"/>
<path id="Vector_107" d="M1066.54 748.038L1047.1 781.717L1057.73 787.857L1077.18 754.178L1066.54 748.038Z" fill="#F2F2F2"/>
<path id="Vector_108" d="M1011.29 369.368L991.845 403.047L1002.48 409.187L1021.92 375.508L1011.29 369.368Z" fill="#F2F2F2"/>
<path id="Vector_109" d="M1328.26 1033H1315.98V1071.89H1328.26V1033Z" fill="#F2F2F2"/>
<path id="Vector_110" d="M1526.8 922.47H1514.52V961.36H1526.8V922.47Z" fill="#F2F2F2"/>
<path id="Vector_111" d="M1476.54 1041.56L1466.93 1049.21L1491.15 1079.64L1500.76 1071.99L1476.54 1041.56Z" fill="#F2F2F2"/>
<path id="Vector_112" d="M1418.6 1159.48L1399.16 1193.16L1409.79 1199.3L1429.24 1165.62L1418.6 1159.48Z" fill="#F2F2F2"/>
<path id="Vector_113" d="M1363.35 780.8L1343.91 814.478L1354.54 820.618L1373.99 786.94L1363.35 780.8Z" fill="#F2F2F2"/>
</g>
<path id="Vector_114" d="M748.09 616.77L728.14 604.91L712.3 595.48L689.33 581.82L673.47 572.4L651.91 559.57C650.8 558.92 649.38 559.29 648.73 560.39C648.53 560.74 648.42 561.13 648.41 561.53L648.19 579.77L648 593.87L647.74 614.31L647.58 628.42L647.32 648.86L647.15 662.95L647 673.43C646.98 673.84 647.08 674.24 647.28 674.59C647.48 674.94 647.76 675.24 648.11 675.45C648.82 675.87 649.71 675.88 650.43 675.47L748.05 620.75C748.67 620.42 749.1 619.81 749.19 619.1C749.22 618.99 749.23 618.87 749.24 618.76C749.24 618.36 749.13 617.96 748.94 617.61C748.74 617.26 748.44 616.96 748.09 616.77Z" fill="#CCCCCC"/>
<path id="Vector_115" d="M689.32 581.83L647.99 593.89L648.18 579.79L673.47 572.41L689.32 581.83Z" fill="#3F3D56"/>
<path id="Vector_116" d="M728.13 604.91L647.57 628.43L647.73 614.33L712.3 595.48L728.13 604.91Z" fill="#3F3D56"/>
<path id="Vector_117" d="M749.19 619.11C749.1 619.81 748.67 620.42 748.05 620.76L700.59 647.37L647.14 662.97L647.31 648.88L749.19 619.11Z" fill="#3F3D56"/>
<path id="Vector_118" d="M645.08 569.96C655.275 569.96 663.54 561.695 663.54 551.5C663.54 541.305 655.275 533.04 645.08 533.04C634.885 533.04 626.62 541.305 626.62 551.5C626.62 561.695 634.885 569.96 645.08 569.96Z" fill="#CCCCCC"/>
</g>
</g>
</g>
</svg>
